<svg xmlns="http://www.w3.org/2000/svg" width="256" height="256" viewBox="0 0 96 96">
<defs>
<linearGradient id="stockG" x1="0" y1="0" x2="0" y2="1">
<stop offset="0" stop-color="#C08B4E"/>
<stop offset="0.45" stop-color="#9A6B37"/>
<stop offset="1" stop-color="#5E3E1D"/>
</linearGradient>
<linearGradient id="steelG" x1="0" y1="0" x2="0" y2="1">
<stop offset="0" stop-color="#D3DCE3"/>
<stop offset="0.5" stop-color="#8B99A6"/>
<stop offset="1" stop-color="#48525C"/>
</linearGradient>
<radialGradient id="drumG" cx="0.35" cy="0.3" r="0.8">
<stop offset="0" stop-color="#F0C25F"/>
<stop offset="0.6" stop-color="#D19A2E"/>
<stop offset="1" stop-color="#8E6416"/>
</radialGradient>
</defs>

<ellipse cx="54" cy="52" rx="31" ry="13" fill="#1B1410" opacity="0.22"/>

<g fill="none" stroke="#211A16" stroke-width="5.2" stroke-linecap="round">
<path d="M 66 43 C 71 34 77 28.5 83.5 26"/>
<path d="M 66 53 C 71 62 77 67.5 83.5 70"/>
</g>
<g fill="none" stroke="#7A4B2A" stroke-width="3" stroke-linecap="round">
<path d="M 66 43 C 71 34 77 28.5 83.5 26"/>
<path d="M 66 53 C 71 62 77 67.5 83.5 70"/>
</g>
<g fill="none" stroke="#C08B4E" stroke-width="1.1" stroke-linecap="round" opacity="0.7">
<path d="M 66.4 42 C 71.4 33.4 77.3 28 83.7 25.4"/>
<path d="M 66.4 52.2 C 71.4 61 77.3 66.7 83.7 69.3"/>
</g>

<circle cx="83.5" cy="26" r="2.6" fill="#8B99A6" stroke="#211A16" stroke-width="1.4"/>
<circle cx="83.5" cy="70" r="2.6" fill="#8B99A6" stroke="#211A16" stroke-width="1.4"/>

<path d="M 83.5 26 L 60 48 L 83.5 70" fill="none" stroke="#211A16" stroke-width="2.4" stroke-linejoin="round"/>
<path d="M 83.5 26 L 60 48 L 83.5 70" fill="none" stroke="#EFE6CD" stroke-width="1.1" stroke-linejoin="round"/>

<path d="M 34 40.5 Q 30.5 48 34 55.5 L 70 53 Q 73.5 48 70 43 Z" fill="url(#stockG)" stroke="#211A16" stroke-width="2.2" stroke-linejoin="round"/>
<path d="M 35.5 42.6 L 68.5 44.7" fill="none" stroke="#E4B87A" stroke-width="1.5" stroke-linecap="round" opacity="0.55"/>

<path d="M 38 46.2 L 71 46.6 L 71 49.4 L 38 49.8 Z" fill="#4E5A66" stroke="#211A16" stroke-width="1.2" stroke-linejoin="round"/>
<line x1="39" y1="47.3" x2="70" y2="47.6" stroke="#AFBCC8" stroke-width="0.9" opacity="0.65"/>

<rect x="63" y="40.5" width="7.5" height="15" rx="2" fill="#8B99A6" stroke="#211A16" stroke-width="1.8"/>
<line x1="66.8" y1="41.8" x2="66.8" y2="54.2" stroke="#4E5A66" stroke-width="1.1"/>
<line x1="64.4" y1="41.8" x2="64.4" y2="54.2" stroke="#D3DCE3" stroke-width="1" opacity="0.7"/>

<circle cx="40" cy="48" r="9" fill="#211A16"/>
<circle cx="40" cy="48" r="7.6" fill="url(#drumG)"/>
<g fill="#8E6416">
<circle cx="45" cy="48" r="1.6"/>
<circle cx="42.5" cy="52.33" r="1.6"/>
<circle cx="37.5" cy="52.33" r="1.6"/>
<circle cx="35" cy="48" r="1.6"/>
<circle cx="37.5" cy="43.67" r="1.6"/>
<circle cx="42.5" cy="43.67" r="1.6"/>
</g>
<circle cx="40" cy="48" r="2.4" fill="#8E6416" stroke="#211A16" stroke-width="1.1"/>
<path d="M 34.6 44.3 A 7.6 7.6 0 0 1 41.2 40.5" fill="none" stroke="#FFE7A8" stroke-width="1.4" stroke-linecap="round" opacity="0.6"/>

<line x1="58" y1="48" x2="82" y2="48" stroke="#211A16" stroke-width="4"/>
<line x1="58" y1="48" x2="82" y2="48" stroke="#B5834A" stroke-width="2.2"/>
<path d="M 80 43.6 L 91 48 L 80 52.4 Z" fill="url(#steelG)" stroke="#211A16" stroke-width="1.8" stroke-linejoin="round"/>
<path d="M 81.5 45.6 L 87.5 47.9" fill="none" stroke="#EDF3F7" stroke-width="1.1" stroke-linecap="round" opacity="0.85"/>
</svg>
