<svg xmlns="http://www.w3.org/2000/svg" width="256" height="256" viewBox="0 0 96 96">
	<defs>
		<linearGradient id="aArm" x1="0" y1="0" x2="0.25" y2="1">
			<stop offset="0" stop-color="#B7A2E0"/>
			<stop offset="0.45" stop-color="#6E5A99"/>
			<stop offset="1" stop-color="#31255A"/>
		</linearGradient>
		<linearGradient id="aClaw" x1="0" y1="0" x2="0.4" y2="1">
			<stop offset="0" stop-color="#C6B4EA"/>
			<stop offset="0.5" stop-color="#7B67A8"/>
			<stop offset="1" stop-color="#2C2150"/>
		</linearGradient>
		<linearGradient id="aTip" x1="0" y1="0" x2="0.6" y2="1">
			<stop offset="0" stop-color="#F3E9FF"/>
			<stop offset="0.45" stop-color="#C9A6FF"/>
			<stop offset="1" stop-color="#542F96"/>
		</linearGradient>
	</defs>

	<ellipse cx="56" cy="52" rx="31" ry="12" fill="#1B1410" opacity="0.26"/>

	<path d="M 40 41.5 L 74 43.5 L 74 52.5 L 40 54.5 Z" fill="url(#aArm)" stroke="#241C33" stroke-width="2.2" stroke-linejoin="round"/>
	<path d="M 41 42.4 L 73.5 44.3 L 73.5 46.4 L 41 45 Z" fill="#DCC4FF" opacity="0.32"/>

	<g stroke="#241C33" stroke-width="1.6">
		<line x1="55" y1="42.4" x2="55" y2="53.6"/>
		<line x1="64" y1="42.9" x2="64" y2="53.1"/>
	</g>
	<g stroke="#C9A6FF" stroke-width="1" opacity="0.55">
		<line x1="57.5" y1="43" x2="57.5" y2="53"/>
		<line x1="66.5" y1="43.4" x2="66.5" y2="52.6"/>
	</g>

	<g stroke="#241C33" stroke-width="2" stroke-linejoin="round">
		<path d="M 70 40.5 C 78 35 86 34 90.5 39.5 L 86.8 42.8 C 83.4 39 78 40.4 72.6 44 Z" fill="url(#aClaw)"/>
		<path d="M 70 55.5 C 78 61 86 62 90.5 56.5 L 86.8 53.2 C 83.4 57 78 55.6 72.6 52 Z" fill="url(#aClaw)"/>
		<path d="M 75 44.6 L 85 48 L 75 51.4 Z" fill="url(#aTip)"/>
	</g>

	<g fill="url(#aTip)" stroke="#241C33" stroke-width="1.5" stroke-linejoin="round">
		<path d="M 88 34.5 L 93 38 L 89.5 42.5 L 86 39 Z"/>
		<path d="M 88 61.5 L 93 58 L 89.5 53.5 L 86 57 Z"/>
	</g>

	<circle cx="48" cy="48" r="7.6" fill="#241C33"/>
	<circle cx="48" cy="48" r="6.4" fill="url(#aArm)"/>
	<path d="M 43.6 43.6 A 6.4 6.4 0 0 1 52.4 43.6" fill="none" stroke="#DCC4FF" stroke-width="1.5" opacity="0.5"/>
</svg>
